<svg id="Layer_1" data-name="Layer 1" xmlns="http://www.w3.org/2000/svg" viewBox="0 0 445.59 386.17"><defs><style>.cls-1,.cls-2{fill:#fff;}.cls-2,.cls-9{stroke:#000;}.cls-11,.cls-2,.cls-9{stroke-miterlimit:10;}.cls-3{fill:#cccdce;}.cls-4{fill:#d6d6d6;}.cls-5{fill:#d9dbdd;}.cls-6{fill:#eaedef;}.cls-7{fill:#5b5b5b;}.cls-8{fill:#595959;}.cls-9{fill:#eaedf4;stroke-width:0.5px;}.cls-10{fill:#fcfcfc;}.cls-11{fill:none;stroke:#f2f2f2;}</style></defs><title>archive</title><rect class="cls-1" x="119.86" y="85.33" width="325.6" height="219.2"/><path d="M478.59,173.29v219H153.24v-219H478.59m.25-.25H153V392.5H478.84V173Z" transform="translate(-33.25 -87.83)"/><path class="cls-2" d="M478.84,173" transform="translate(-33.25 -87.83)"/><path class="cls-2" d="M360.5,252.84" transform="translate(-33.25 -87.83)"/><path class="cls-2" d="M478.84,392.5" transform="translate(-33.25 -87.83)"/><path class="cls-2" d="M360.5,472.3" transform="translate(-33.25 -87.83)"/><line class="cls-2" x1="76.42" y1="122.46" x2="0.25" y2="167.17"/><polyline class="cls-3" points="386.75 148.67 387.25 0 107.75 0.17 108.75 142.17"/><polyline class="cls-4" points="90.75 172.67 90.33 14.13 369.54 13.38 368.75 168.17"/><polyline class="cls-5" points="73.25 162.17 72.75 28.67 352.75 26.2 352.75 163.17"/><polyline class="cls-6" points="53.25 168.17 54.88 43.23 337.75 42 336.75 164.67"/><polygon class="cls-7" points="325.75 167.01 325.75 386.17 445.5 304.67 445.25 85.92 325.75 167.01"/><rect class="cls-8" x="0.65" y="166.76" width="325.35" height="218.95"/><path d="M359,254.84V473.3H34.15V254.84H359m.5-.5H33.65V473.8H359.5V254.34Z" transform="translate(-33.25 -87.83)"/><path class="cls-9" d="M131.68,289.69H259.29c4.43,0,8,3,8,6.77v10.3c0,3.74-3.59,6.77-8,6.77H131.68c-4.43,0-8-3-8-6.77v-10.3C123.65,292.72,127.24,289.69,131.68,289.69Z" transform="translate(-33.25 -87.83)"/><polyline class="cls-10" points="41.5 165.17 40.88 59.23 323.75 58 323.75 165.17"/><polyline class="cls-11" points="54.75 58.67 40.5 58.67 41.5 166.67"/></svg>