<?xml version="1.0" encoding="utf-8"?>
<!-- Generator: Adobe Illustrator 20.0.0, SVG Export Plug-In . SVG Version: 6.00 Build 0)  -->
<svg version="1.1"
	 id="svg2" xmlns:cc="http://creativecommons.org/ns#" xmlns:dc="http://purl.org/dc/elements/1.1/" xmlns:rdf="http://www.w3.org/1999/02/22-rdf-syntax-ns#" xmlns:svg="http://www.w3.org/2000/svg"
	 xmlns="http://www.w3.org/2000/svg" xmlns:xlink="http://www.w3.org/1999/xlink" x="0px" y="0px" viewBox="0 0 512 512"
	 style="enable-background:new 0 0 512 512;" xml:space="preserve">
<style type="text/css">
	.st0{fill:#FFFFFF;fill-opacity:0.9787;stroke:#000000;stroke-width:4;stroke-linecap:round;}
	.st1{fill:#5B5B5B;fill-opacity:0.9787;}
	.st2{fill:#FFFFFF;}
	.st3{font-family:'Arial-BoldMT';}
	.st4{font-size:173.7978px;}
</style>
<title  id="title3844">vectorstash-stopsign</title>
<g id="layer1" transform="translate(0,435.82681)">
	<g id="g3836">
		<path id="path2989" class="st0" d="M342.7,36.6l-169.9-0.1c-4.2,0-8.2-1.6-11.2-4.6L42.3-84.3c-3.3-3.2-5.2-7.7-5.1-12.3l0.1-167
			c0-4.5,1.8-8.9,4.9-12.1l119.7-121.1c3.1-3.1,7.2-4.8,11.4-4.8l169.7,0.1c4.2,0,8.3,1.7,11.3,4.7l119.5,118.7
			c3.2,3.2,5,7.6,5,12.2l-0.1,167c0,4.6-1.8,9-5,12.2L354,31.9C351,34.9,346.9,36.6,342.7,36.6z"/>
		<path id="path2989-4" class="st1" d="M331.8,10.7l-148.5-0.1c-4.1,0-8.1-1.6-11.2-4.6L67.9-95.1c-3.3-3.2-5.2-7.7-5.2-12.4
			l0.1-145.8c0-4.5,1.8-8.9,4.9-12.1l104.5-106.1c3.1-3.1,7.2-4.8,11.5-4.8l148.2,0.1c4.2,0,8.3,1.7,11.3,4.7l104.4,103.7
			c3.2,3.2,5,7.6,5,12.2l-0.1,145.8c0,4.6-1.8,9-5,12.2L343.1,6C340.1,9,336,10.7,331.8,10.7z"/>
		<text transform="matrix(0.7336 0 0 1 85.7539 -120.3864)" class="st2 st3 st4">STOP</text>
	</g>
</g>
</svg>
