<?xml version="1.0" encoding="utf-8"?>
<!-- Generator: Adobe Illustrator 20.0.0, SVG Export Plug-In . SVG Version: 6.00 Build 0)  -->
<svg version="1.1" id="Layer_1" xmlns="http://www.w3.org/2000/svg" xmlns:xlink="http://www.w3.org/1999/xlink" x="0px" y="0px"
	 viewBox="0 0 512.4 512.4" style="enable-background:new 0 0 512.4 512.4;" xml:space="preserve">
<style type="text/css">
	.st0{fill:#5B5B5B;}
	.st1{fill:#D9DBE8;stroke:#5B5B5B;stroke-miterlimit:10;}
	.st2{fill:#FFFFFF;}
	.st3{fill:#4C4D4F;stroke:#CCCCCE;stroke-miterlimit:10;}
</style>
<path class="st0" d="M164,484.1c-0.2-114.5-0.2-224.9-0.4-339.5c-0.1-5.6,3.6-10.4,9.3-10.4l1.7,0c5,0,8.1-3.7,8.4-8.6l0-0.4
	c0.3-4.8,5.4-8.6,10.4-8.6l120.6,0c5.1,0,9.2,3.9,9.4,8.8c0.2,4.9,3.4,8.7,8.4,8.7l1.7-0.1c6.1,0,9.1,4.5,9.2,10.5
	c0,114.5-0.1,225-0.2,339.6c0.1,1.7-3.3,5.4-4.2,5.4c-57.5,0-112.7-0.1-170.2-0.2C167.1,489.5,164.1,485.5,164,484.1z"/>
<path class="st0" d="M279.3,490.5c-16.1,14.6-35.7,14.7-52.8-0.1"/>
<polygon class="st1" points="316.5,116.3 190.8,116.3 190.8,20.6 316.5,20.6 "/>
<path class="st2" d="M300.7,256.6l-17.6-0.2l0.4,17.1l3.4,0.2l1.2,0.1l0.1,14.2L260,295l-0.9-55.8l5.7,6.1c1.8,1.9,4.7,2.2,6.5,0.7
	c1.8-1.6,1.7-4.4-0.1-6.4l-13.2-14c-1.8-1.9-4.7-2.3-6.5-0.7l-16,14.1c-1.8,1.6-1.7,4.4,0.1,6.4c1.8,1.9,4.7,2.2,6.5,0.7l7.8-6.8
	l1.1,68.4l-27.8-13.3l-0.2-14.9c0-1.1-0.5-2-1.1-2.8c0.4-0.2,0.8-0.5,1.2-0.8c3.5-3.1,5-9.6,1.3-13.5s-10.3-3.9-13.9-0.8
	c-3.5,3.1-4.1,8.9-0.5,12.9c1.2,1.3,2.6,2.1,4,2.7c-0.1,0.4-0.3,0.9-0.3,1.4l0.3,18c0,1.9,1.3,3.7,3.1,4.6l34.1,16.3l0.2,12
	c0,0.8,0.3,0.5,0.8,1.2c-2,0.4-4,1.8-5.5,3.1c-5.3,4.7-5.9,13.2-0.4,19.1c5.5,5.8,13.6,5.9,18.9,1.3c5.3-4.7,6.6-13.3,1.2-19.1
	c-1.8-1.9-4-3.3-6.2-4.1c0.3-0.6,0.5-1.2,0.5-1.9l-0.2-13.7l0,0l-0.2-10.2l33.7-8.8c0.6-0.2,1.2-0.5,1.6-0.9c0.8-0.8,1.3-1.9,1.3-3
	l-0.3-17.9l0,0l4.3-0.2L300.7,256.6z"/>
<path class="st3" d="M239.7,83.6l-22.4-0.2c-1.2,0-2.2-1-2.2-2.1V59.4c0-1.2,1-2.1,2.2-2.1l22.4,0.2c1.2,0,2.2,1,2.2,2.1v21.8
	C241.9,82.6,240.9,83.6,239.7,83.6z"/>
<path class="st3" d="M288.7,83.6l-22.4-0.2c-1.2,0-2.2-1-2.2-2.1V59.4c0-1.2,1-2.1,2.2-2.1l22.4,0.2c1.2,0,2.2,1,2.2,2.1v21.8
	C290.9,82.6,289.9,83.6,288.7,83.6z"/>
</svg>
