<?xml version="1.0" encoding="utf-8"?>
<!-- Generator: Adobe Illustrator 20.0.0, SVG Export Plug-In . SVG Version: 6.00 Build 0)  -->
<svg version="1.1" id="Layer_1" xmlns="http://www.w3.org/2000/svg" xmlns:xlink="http://www.w3.org/1999/xlink" x="0px" y="0px"
	 viewBox="0 0 512 512" style="enable-background:new 0 0 512 512;" xml:space="preserve">
<style type="text/css">
	.st0{fill:#5B5B5B;stroke:#FFFFFF;stroke-width:9;stroke-miterlimit:10;}
	.st1{fill:#5B5B5B;stroke:#FFFFFF;stroke-width:8;stroke-miterlimit:10;}
	.st2{fill:#7A848C;}
	.st3{fill:#5B5B5B;}
	.st4{fill:none;stroke:#1E50D8;stroke-width:0.5;stroke-miterlimit:10;}
	.st5{display:none;}
	.st6{display:inline;}
	.st7{fill:#898686;}
	.st8{fill:#EBBA16;}
</style>
<g id="Capa_1">
	<g>
		<path id="XMLID_1_" class="st0" d="M441.8,293.8h-22.6v-80.6c0-9.4-8-17-17.8-17h-8.3v-70.2H133.1v12.4h-19.5v12.4H94.1v54h-8.3
			c-9.8,0-17.8,7.7-17.8,17V483l0,0c0,3.5,1.1,7,3.4,9.8c3.2,4,8,6.3,13.3,6.3h291.1c7.5,0,14.1-4.9,15.9-11.3l66.5-174.3v-1
			C458.2,301.6,451.3,293.8,441.8,293.8z M401.4,208.6c2.6,0,4.7,2.1,4.7,4.5v80.6h-13v-85.1H401.4z M380.1,138.3v99.6v55.9H150.7
			c-1.5,0-3,0.2-4.4,0.6c-0.1,0-0.2,0-0.3,0V138.3H380.1z M133.1,150.7v159.1l-0.4,1.2l-6.1,15.9V150.7H133.1z M107,163.1h6.5V361
			l-6.5,17.1V194.3V163.1z M81,221.6c0-2.6,2.2-4.5,4.7-4.5h8.3v194.5l-13,34V221.6z M379.2,483.9c-0.4,1.5-1.8,2.6-3.6,2.6h-291
			c-1.6,0-2.5-0.8-2.9-1.4c-0.4-0.5-1.1-1.6-0.8-2.6l13-34.2l0,0l19.5-51.2l0,0l19.5-51.2l0,0l12.6-32.9l0.4-1.2l0,0l1.1-2.7
			l0.2-0.5c0.4-1.5,1.9-2.6,3.6-2.6h229.4h13h25.9h22.6c2.5,0,3.1,3.4,3.2,5.1L379.2,483.9z"/>
		<path class="st1" d="M175.4,252.6h165.3c3.8,0,6.8-2.8,6.8-6.2c0-3.5-3.1-6.2-6.8-6.2H175.4c-3.8,0-6.8,2.8-6.8,6.2
			C168.5,249.8,171.6,252.6,175.4,252.6z"/>
		<path class="st1" d="M176.5,188h72.8c4,0,7.2-2.8,7.2-6.2c0-3.4-3.3-6.2-7.2-6.2h-72.8c-4,0-7.2,2.8-7.2,6.2
			C169.3,185.2,172.5,188,176.5,188z"/>
		<path class="st1" d="M176.8,277.5h164c3.7,0,6.8-2.8,6.8-6.2c0-3.5-3.1-6.2-6.8-6.2h-164c-3.7,0-6.8,2.8-6.8,6.2
			S173,277.5,176.8,277.5z"/>
	</g>
	<polygon class="st2" points="156.9,303.8 145.7,303.8 145.7,303.8 	"/>
	<path class="st3" d="M381.2,484.4c-1.3,3.5-4.8,5.7-8.8,5.7H82.5c-3.8,0-5.6-5.1-4.3-8.4l63.7-170.2c1.9-5.2,5.4-8.7,11.3-8.7
		l289.7,0.3c4.3,0,7,5.1,5.6,9L381.2,484.4z"/>
	<path class="st3" d="M97.4,412.4l-20.6,55.7c0,0-0.4-246.3-0.2-248c0.4-4.3,6.8-7,6.8-7l15.2-0.2L97.4,412.4z"/>
	<path class="st3" d="M410.3,298.4H389l-0.1-93.7H404c4,0.3,6.1,6.4,6.1,7L410.3,298.4z"/>
	<path class="st3" d="M254.1,125.5l33.7-44.2l-9.7,0.2c0,0,0.3-39.8-0.1-46.4c-1-14.9-16.9-16.4-16.9-16.4L219.3,21
		c0,0,11.3,6.6,11.5,16.4c0.1,6.6-0.4,44.2-0.4,44.2h-9.9L254.1,125.5z"/>
	<path class="st4" d="M180.8,197.3c6.1-1.4,38.6,8,36.3,9.4c-2.3,1.4-9.3,0.7-13.5-0.5c-0.3-0.1-1.2-0.3-2.2-0.7
		c-1-0.3-4.7-1.7-7.9-4.9c-2.2-2.1-7.3-7.4-3.4-10c3.3-2.2,12.6-1.7,16.3,0.9c3,2.2,1.5,5.2-0.5,9.2c-2.5,4.9-7.5,10-9.2,9.7
		c-2.2-0.5-1.6-7.9,3.9-14.3c2.6-3,16.7-3.7,19.2-5.2"/>
</g>
<g id="Layer_2" class="st5">
	<g class="st6">
		<path class="st3" d="M261.1,241.8L261.1,241.8c0.1,0.2,0.4,0.3,0.6,0.2l0,0c0.4-0.1,0.8,0.2,0.6,0.5l0,0c-0.1,0.2,0,0.4,0.2,0.5
			l0,0c0.4,0.1,0.4,0.6,0,0.7l0,0c-0.2,0.1-0.4,0.3-0.2,0.5l0,0c0.2,0.3-0.2,0.6-0.6,0.5l0,0c-0.2-0.1-0.5,0-0.6,0.2l0,0
			c-0.1,0.3-0.7,0.3-0.8,0l0,0c-0.1-0.2-0.4-0.3-0.6-0.2l0,0c-0.4,0.1-0.8-0.2-0.6-0.5l0,0c0.1-0.2,0-0.4-0.2-0.5l0,0
			c-0.4-0.1-0.4-0.6,0-0.7l0,0c0.2-0.1,0.4-0.3,0.2-0.5l0,0c-0.2-0.3,0.2-0.6,0.6-0.5l0,0c0.2,0.1,0.5,0,0.6-0.2l0,0
			C260.4,241.5,261,241.5,261.1,241.8z"/>
		<path class="st7" d="M261.7,244.7c-0.2-0.1-0.5,0-0.6,0.2c-0.1,0.3-0.7,0.3-0.8,0c-0.1-0.2-0.4-0.3-0.6-0.2c0,0,0,0-0.1,0v2.4
			l1.1-0.9l1.1,0.9L261.7,244.7L261.7,244.7z"/>
	</g>
</g>
<g id="Layer_3">
	<g>
		<g>
			<path class="st7" d="M310.3,179.8l-7.4,21.9l7.5-4.2l4,7.4l6.7-21.3C321,183.4,310.4,179.8,310.3,179.8z"/>
			<path class="st7" d="M324,181.1c-3.4,1.2-6.3,2.5-9.3,3.8l5.8,20.3l2.7-5.4l7.7,2.1C331,201.9,324.2,181.1,324,181.1z"/>
		</g>
		<path class="st8" d="M311.8,164.8L311.8,164.8c1.7,1,4.1,0.5,5.2-0.9l0,0c1.7-2.3,6.1-1.7,6.6,0.9l0,0c0.3,1.6,2.3,2.7,4.4,2.2
			l0,0c3.3-0.7,5.7,2.2,3.7,4.3l0,0c-1.3,1.4-0.8,3.3,1,4.1l0,0c2.9,1.3,2,4.8-1.4,5.2l0,0c-2.1,0.3-3.5,1.9-3,3.5l0,0
			c0.8,2.6-2.9,4.6-5.6,3.1l0,0c-1.7-1-4.1-0.5-5.2,0.9l0,0c-1.7,2.3-6.1,1.7-6.6-0.9l0,0c-0.3-1.6-2.3-2.7-4.4-2.2l0,0
			c-3.3,0.7-5.7-2.2-3.7-4.3l0,0c1.3-1.4,0.8-3.3-1-4.1l0,0c-2.9-1.3-2-4.8,1.4-5.2l0,0c2.1-0.3,3.5-1.9,3-3.5l0,0
			C305.4,165.3,309.1,163.3,311.8,164.8z"/>
	</g>
</g>
<path class="st1" d="M181.1,228.3h94.8c5.2,0,9.4-2.4,9.4-5.3s-4.2-5.3-9.4-5.3h-94.8c-5.2,0-9.4,2.4-9.4,5.3
	S175.9,228.3,181.1,228.3z"/>
</svg>
