<?xml version="1.0" encoding="utf-8"?>
<!-- Generator: Adobe Illustrator 20.0.0, SVG Export Plug-In . SVG Version: 6.00 Build 0)  -->
<svg version="1.1" id="Layer_1" xmlns="http://www.w3.org/2000/svg" xmlns:xlink="http://www.w3.org/1999/xlink" x="0px" y="0px"
	 viewBox="0 0 512 512" style="enable-background:new 0 0 512 512;" xml:space="preserve">
<style type="text/css">
	.st0{fill:#5B5B5B;}
	.st1{fill:#898686;}
	.st2{fill:#5B5B5B;stroke:#FFFFFF;stroke-miterlimit:10;}
	.st3{display:none;}
	.st4{display:inline;fill:#EBBA16;}
	.st5{fill:#EBBA16;stroke:#FFFFFF;stroke-miterlimit:10;}
</style>
<g id="Capa_1">
	<g>
		<g>
			<path class="st0" d="M352.8,100.2H239.5c0,7.1-5.6,12.9-12.6,12.9s-12.6-5.8-12.6-12.9H101c-17.3,0-31.5,14.4-31.5,32.2v322.2
				c0,17.8,14.2,32.2,31.5,32.2h251.8c17.3,0,31.5-14.4,31.5-32.2V132.5C384.3,114.8,370.1,100.2,352.8,100.2z M352.8,448.3
				c0,3.5-2.8,6.5-6.3,6.5H107.3c-3.4,0-6.3-2.9-6.3-6.5V138.9c0-3.5,2.8-6.5,6.3-6.5h239.2c3.4,0,6.3,2.9,6.3,6.5V448.3z"/>
		</g>
		<g>
			<path class="st1" d="M264.6,87.4h-16c-4.4-7.9-12.7-12.9-21.8-12.9c-9.1,0-17.3,5-21.8,12.9h-16c-17.3,0-31.5,14.4-31.5,32.2
				v25.7c0,3.5,2.8,6.5,6.3,6.5h125.9c3.5,0,6.3-2.9,6.3-6.5v-25.7C296.1,101.9,282,87.4,264.6,87.4z M226.9,106.7
				c-3.4,0-6.3-2.9-6.3-6.5c0-3.6,2.8-6.5,6.3-6.5c3.4,0,6.3,2.9,6.3,6.5C233.2,103.9,230.3,106.7,226.9,106.7z"/>
		</g>
	</g>
	<path class="st2" d="M129.9,241.2h197.6c4.6,0,8.3-2.6,8.3-5.8s-3.7-5.8-8.3-5.8H129.9c-4.6,0-8.3,2.6-8.3,5.8
		S125.3,241.2,129.9,241.2z"/>
	<path class="st2" d="M132,202.2h82.4c4.6,0,8.3-2.6,8.3-5.8s-3.7-5.8-8.3-5.8H132c-4.6,0-8.3,2.6-8.3,5.8S127.5,202.2,132,202.2z"
		/>
	<path class="st2" d="M129.9,278.9h197.6c4.6,0,8.3-2.6,8.3-5.8s-3.7-5.8-8.3-5.8H129.9c-4.6,0-8.3,2.6-8.3,5.8
		S125.3,278.9,129.9,278.9z"/>
	<path class="st2" d="M129.1,344.2h197.6c4.6,0,8.3-2.6,8.3-5.8c0-3.2-3.7-5.8-8.3-5.8H129.1c-4.6,0-8.3,2.6-8.3,5.8
		C120.8,341.6,124.5,344.2,129.1,344.2z"/>
	<path class="st2" d="M129.5,311.6h197.6c4.6,0,8.3-2.6,8.3-5.8c0-3.2-3.7-5.8-9.1-5.8H128.7c-3.8,0-7.4,2.6-7.4,5.8
		C121.4,309,125,311.6,129.5,311.6z"/>
</g>
<g id="Layer_2" class="st3">
	<path class="st4" d="M436.6,29.8L436.6,29.8c2.2,5.2,9.4,7.6,15.5,5.3l0,0c3.6-1.4,12.2-4.4,15.1-3.1c4.9,2.2,2.8,10.5-0.1,15.5
		l0,0c-2.9,5,0.1,10.9,6.4,12.7l0,0c2.3,0.7,13.6,4.1,13.8,7.7c0.2,4.3-11.1,8.9-13.8,9.7l0,0c-6.3,1.8-9.3,7.8-6.4,12.7l0,0
		c2.3,3.9,4.4,11.2,1.3,13.7s-11.5,0.5-16.3-1.4l0,0c-6-2.4-13.2,0.1-15.5,5.3l0,0c-2.2,5.1-5.1,12.6-10.3,11.4
		c-3.3-0.7-9.6-8.2-10.9-11.4l0,0c-2.2-5.2-9.4-7.6-15.5-5.3l0,0c-4.8,1.9-13.5,5.3-16.6,2.7c-3.1-2.6-0.7-11.1,1.6-15.1l0,0
		c2.9-5-0.1-10.9-6.4-12.7l0,0c-6-1.8-15.2-3.4-14-7.7c0.8-2.8,10-8.6,14-9.8l0,0c6.3-1.8,9.3-7.8,6.4-12.7l0,0
		c-2.5-4.3-9-14.6-5.2-17.1c3.1-2,15.9,3,20.2,4.7l0,0c6,2.4,13.2-0.1,15.5-5.3l0,0c1.8-4.1,4.4-10.7,8.8-10.7
		C428.5,19.1,434.8,25.7,436.6,29.8z"/>
</g>
<g id="Layer_3">
	<path class="st5" d="M491.2,107.4c0-2-1.6-3.6-3.6-3.6L386,104l-0.2-75.8c0-2-1.6-3.6-3.6-3.6h-29.8c-2,0-3.6,1.6-3.6,3.6l0.2,75.1
		l-95.7,0.5c-2,0-3.6,1.6-3.6,3.6V134c0,2,1.6,3.6,3.6,3.6l95-0.3l0.5,74.9c0,2,1.6,3.6,3.6,3.6h29.8c2,0,3.6-1.6,3.6-3.6l-0.1-74.9
		l101.9,0.3c2,0,3.6-1.6,3.6-3.6V107.4z"/>
</g>
</svg>
